<?xml version="1.0" standalone="no"?>
<!DOCTYPE svg PUBLIC "-//W3C//DTD SVG 20010904//EN"
 "http://www.w3.org/TR/2001/REC-SVG-20010904/DTD/svg10.dtd">
<svg version="1.0" xmlns="http://www.w3.org/2000/svg"
 width="1085.000000pt" height="1280.000000pt" viewBox="0 0 1085.000000 1280.000000"
 preserveAspectRatio="xMidYMid meet">
<metadata>
Created by potrace 1.15, written by Peter Selinger 2001-2017
</metadata>
<g transform="translate(0.000000,1280.000000) scale(0.100000,-0.100000)"
fill="#000000" stroke="none">
<path d="M2020 12794 c-217 -26 -412 -82 -569 -165 -389 -204 -685 -590 -871
-1136 -21 -62 -37 -113 -34 -113 2 0 30 13 62 29 142 71 377 141 582 173 56 8
178 13 355 12 232 0 288 -3 400 -22 540 -93 999 -305 1490 -687 337 -262 740
-689 1043 -1104 34 -47 62 -78 62 -70 0 31 -33 200 -62 319 -57 238 -182 589
-302 853 -14 31 -24 57 -22 57 2 0 40 -7 83 -15 159 -31 242 -16 283 50 30 48
30 107 1 164 -39 75 -260 292 -466 456 -556 444 -1245 724 -1905 775 -83 6
-69 7 100 8 543 4 1187 -111 1710 -307 46 -17 80 -27 75 -23 -30 27 -184 138
-275 199 -419 279 -866 464 -1275 528 -98 15 -395 27 -465 19z"/>
<path d="M8525 12794 c-16 -2 -70 -9 -120 -15 -401 -49 -881 -243 -1315 -532
-91 -61 -245 -172 -275 -199 -5 -4 29 6 75 23 523 196 1167 311 1710 307 169
-1 183 -2 100 -8 -660 -51 -1349 -331 -1905 -775 -206 -164 -427 -381 -466
-456 -29 -57 -29 -116 1 -164 41 -66 124 -81 283 -50 43 8 81 15 83 15 2 0 -8
-26 -22 -57 -120 -264 -245 -615 -302 -853 -29 -119 -62 -288 -62 -319 0 -8
28 23 62 70 303 415 706 842 1043 1104 491 382 950 594 1490 687 112 19 168
22 400 22 177 1 299 -4 355 -12 205 -32 440 -102 582 -173 32 -16 60 -29 62
-29 6 0 -66 211 -101 295 -122 289 -266 511 -448 690 -118 116 -225 195 -356
264 -114 60 -300 123 -429 146 -90 15 -380 28 -445 19z"/>
<path d="M2325 10319 c-228 -23 -429 -71 -550 -132 -120 -60 -244 -177 -428
-402 -181 -222 -303 -342 -392 -386 -62 -30 -79 -34 -150 -34 -66 0 -90 5
-138 27 -115 54 -227 190 -371 453 -36 66 -66 115 -66 109 0 -16 68 -180 115
-279 56 -115 128 -230 204 -325 33 -41 59 -75 58 -76 -1 -1 -70 -47 -154 -103
-132 -88 -323 -248 -323 -271 0 -4 49 25 108 64 207 137 382 210 489 204 l56
-3 -129 -74 c-169 -96 -274 -167 -389 -263 -90 -75 -210 -210 -242 -273 -13
-26 -8 -23 38 21 220 208 469 369 668 433 132 43 215 54 370 49 165 -5 188
-12 393 -115 271 -135 564 -192 996 -193 l202 0 0 130 0 130 -34 0 c-175 0
-596 46 -811 89 -152 31 -303 90 -415 162 -76 49 -80 66 -41 160 105 251 310
478 536 592 168 85 346 125 600 136 l160 6 0 85 0 85 -140 1 c-77 1 -176 -2
-220 -7z"/>
<path d="M8164 10317 c-3 -8 -4 -47 -2 -88 l3 -74 160 -6 c254 -11 432 -51
600 -136 226 -114 431 -341 536 -592 39 -94 35 -111 -41 -160 -112 -72 -263
-131 -415 -162 -215 -43 -636 -89 -811 -89 l-34 0 0 -130 0 -130 203 0 c431 1
724 58 995 193 205 103 228 110 393 115 155 5 238 -6 370 -49 199 -64 448
-225 668 -433 46 -44 51 -47 38 -21 -32 63 -152 198 -242 273 -115 96 -220
167 -389 263 l-129 74 56 3 c107 6 282 -67 489 -204 59 -39 108 -68 108 -64 0
23 -191 183 -323 271 -84 56 -153 102 -154 103 -1 1 25 35 58 76 76 95 148
210 204 325 47 99 115 263 115 279 0 6 -30 -43 -66 -109 -144 -263 -256 -399
-371 -453 -48 -22 -72 -27 -138 -27 -71 0 -88 4 -150 34 -89 44 -211 164 -392
386 -184 225 -308 342 -428 402 -85 43 -252 91 -390 112 -210 32 -511 43 -521
18z"/>
<path d="M2880 10217 l0 -84 108 -22 c385 -82 806 -296 956 -488 25 -31 44
-59 41 -61 -2 -2 -30 14 -62 35 -260 175 -566 313 -805 363 -377 79 -832 16
-1203 -165 -145 -71 -234 -134 -342 -242 -63 -62 -73 -77 -73 -107 0 -113 304
-222 783 -280 251 -31 417 -38 624 -26 520 28 705 63 1038 195 40 16 -71 -87
-141 -131 -166 -104 -423 -163 -778 -180 l-146 -7 0 -133 0 -133 53 5 c539 53
992 216 1208 436 83 84 111 147 110 245 -2 339 -374 621 -1052 797 -117 31
-284 66 -310 66 -5 0 -9 -37 -9 -83z"/>
<path d="M7825 10276 c-579 -121 -1010 -344 -1159 -599 -73 -123 -89 -274 -41
-372 128 -262 657 -486 1293 -549 l52 -5 0 133 0 133 -146 7 c-355 17 -612 76
-778 180 -70 44 -181 147 -141 131 333 -132 518 -167 1038 -195 207 -12 373
-5 624 26 479 58 783 167 783 280 0 30 -10 45 -72 107 -109 108 -198 171 -343
242 -371 181 -826 244 -1203 165 -239 -50 -545 -188 -805 -363 -32 -21 -60
-37 -62 -35 -3 2 16 30 41 61 150 192 571 406 957 488 l107 22 0 84 c0 97 13
92 -145 59z"/>
<path d="M4741 9970 c-1 -8 -6 -123 -11 -255 -25 -604 -110 -1041 -285 -1450
-138 -322 -286 -558 -586 -932 -249 -312 -309 -430 -309 -613 0 -109 14 -174
58 -280 29 -68 121 -225 122 -208 0 4 -9 31 -21 60 -38 97 -59 211 -60 320 0
129 16 183 82 279 69 99 626 654 691 689 l48 25 20 -21 c19 -19 21 -33 21
-135 0 -63 -10 -195 -21 -294 -48 -414 -33 -691 45 -846 80 -157 275 -292 535
-369 194 -58 516 -58 710 0 261 77 455 212 535 369 78 155 93 432 45 846 -11
99 -21 231 -21 294 0 102 2 116 21 135 l20 21 48 -25 c65 -35 622 -590 691
-689 66 -96 82 -150 82 -279 -1 -109 -22 -223 -60 -320 -12 -29 -21 -56 -21
-60 1 -17 93 140 122 208 44 106 58 171 58 280 0 183 -60 301 -309 613 -300
374 -448 610 -586 932 -176 412 -261 847 -285 1459 -5 137 -11 251 -13 253 -5
5 -35 -205 -52 -367 -35 -346 -44 -924 -25 -1590 15 -502 35 -748 91 -1110 38
-240 46 -364 30 -456 -18 -100 -43 -139 -129 -195 -263 -172 -711 -206 -1041
-79 -110 43 -220 116 -248 166 -53 96 -54 239 -4 564 56 364 76 610 91 1110
20 702 10 1253 -30 1630 -19 175 -46 353 -49 320z"/>
<path d="M3110 6978 c-405 -283 -809 -455 -1238 -527 -206 -35 -328 -43 -578
-39 -220 5 -247 7 -344 32 -213 56 -377 154 -559 333 l-114 113 7 -43 c9 -60
90 -357 142 -522 142 -449 432 -1055 764 -1595 358 -581 778 -1140 1354 -1800
237 -271 581 -646 562 -612 -4 7 -116 169 -249 360 -435 628 -684 1012 -880
1358 -83 147 -207 387 -207 401 0 4 15 -7 32 -24 53 -48 283 -232 409 -326
245 -181 463 -293 733 -377 102 -31 407 -102 414 -96 2 2 -27 14 -65 26 -37
12 -131 47 -208 77 -532 210 -978 509 -1312 884 -225 252 -376 482 -530 808
-124 263 -393 886 -393 911 0 12 161 -34 199 -56 29 -17 78 -80 111 -144 18
-34 378 -591 565 -875 253 -384 403 -569 550 -680 109 -82 162 -103 286 -115
57 -5 544 -11 1082 -13 l977 -5 77 107 c108 148 401 527 495 641 108 131 130
145 233 145 103 0 125 -14 233 -145 94 -114 387 -493 495 -641 l77 -107 977 5
c538 2 1025 8 1082 13 124 12 177 33 286 115 147 111 297 296 550 680 187 284
547 841 565 875 33 64 82 127 111 144 38 22 199 68 199 56 0 -25 -269 -648
-393 -911 -273 -577 -637 -1001 -1147 -1334 -274 -179 -599 -336 -903 -435
-38 -12 -67 -24 -65 -26 7 -6 312 65 414 96 270 84 488 196 733 377 126 94
356 278 409 326 17 17 32 28 32 24 0 -14 -124 -254 -207 -401 -196 -346 -445
-730 -880 -1358 -133 -191 -245 -353 -249 -360 -19 -34 325 341 562 612 992
1136 1627 2118 2023 3125 79 203 217 661 237 792 l7 43 -114 -113 c-182 -179
-346 -277 -559 -333 -97 -25 -124 -27 -344 -32 -250 -4 -372 4 -578 39 -429
72 -833 244 -1238 527 -125 88 -118 87 -187 27 -89 -76 -82 -160 21 -260 112
-109 281 -195 571 -290 356 -118 660 -181 1023 -213 l83 -7 -177 -225 c-416
-528 -699 -870 -757 -914 -53 -41 -144 -49 -447 -43 -396 9 -781 48 -961 98
-160 44 -214 90 -458 393 -99 121 -199 240 -224 264 l-44 43 -149 -50 c-177
-59 -319 -88 -497 -100 -236 -17 -440 12 -714 100 l-156 51 -44 -44 c-25 -24
-125 -143 -224 -264 -244 -303 -298 -349 -458 -393 -180 -50 -565 -89 -961
-98 -303 -6 -394 2 -447 43 -58 44 -341 386 -757 914 l-177 225 83 7 c363 32
667 95 1023 213 290 95 459 181 571 290 103 100 110 184 21 260 -69 60 -62 61
-187 -27z"/>
<path d="M4103 6229 c-85 -25 -29 -154 96 -222 100 -55 319 -95 349 -65 21 21
14 81 -17 129 -69 110 -300 195 -428 158z"/>
<path d="M6600 6230 c-118 -21 -236 -87 -281 -159 -31 -48 -38 -108 -17 -129
30 -30 249 10 349 65 90 48 152 137 134 192 -11 35 -87 48 -185 31z"/>
<path d="M3996 4339 c-79 -62 11 -109 284 -149 235 -34 509 -44 1175 -45 762
0 1039 17 1300 82 125 31 157 67 99 112 l-27 21 -1402 0 -1402 0 -27 -21z"/>
<path d="M4747 3276 c10 -13 60 -74 110 -135 228 -276 249 -391 142 -774 -69
-248 -74 -284 -73 -562 1 -311 14 -433 104 -974 75 -446 102 -565 156 -677 55
-116 114 -154 239 -154 125 0 184 38 239 154 54 112 81 231 156 677 90 541
103 663 104 974 1 278 -4 314 -73 562 -107 383 -86 498 142 774 50 61 100 122
110 135 l19 24 -697 0 -697 0 19 -24z"/>
</g>
</svg>
